<svg width="26" height="43" viewBox="0 0 26 43" fill="none" xmlns="http://www.w3.org/2000/svg">
<g clip-path="url(#clip0_53_8)">
<path d="M25.9378 2.75745C22.2337 3.21253 21.1617 7.57108 20.973 10.7026C20.6514 15.4302 21.9226 20.0973 21.4904 24.7908C21.3266 28.0309 19.3561 31.7285 16.324 33.0054C15.6268 32.9834 14.9293 32.9683 14.2312 32.9597C14.8629 32.2216 15.4291 31.4286 15.9081 30.5852C15.062 31.0625 14.266 31.6268 13.5253 32.2566C13.4911 29.4867 13.3714 26.723 12.9999 23.9673C12.6286 26.7235 12.5089 29.4878 12.4747 32.2581C11.7334 31.6288 10.9371 31.0643 10.0919 30.5855C10.5733 31.4292 11.1407 32.2239 11.7733 32.9635C11.0829 32.9733 10.3887 32.9887 9.69325 33.0101C9.31427 32.8549 8.95137 32.6666 8.61556 32.4423C7.33722 31.6288 6.41642 30.3719 5.70848 29.0586C4.99548 27.7506 4.59179 26.2857 4.50962 24.7908C4.07736 20.0976 5.34825 15.4296 5.02703 10.7026C4.83739 7.57049 3.76774 3.21549 0.0625135 2.75745L0 2.96185C0.690079 3.35018 1.26345 3.83255 1.66327 4.42202C2.49803 5.61578 2.71387 7.08663 2.83116 8.52069C2.96692 10.8115 2.81182 13.0747 2.8136 15.4032C2.88833 19.1789 2.44356 23.735 3.67546 27.3679C4.49176 29.6385 6.2113 31.9116 8.39407 33.0593C6.73169 33.135 5.07199 33.2623 3.45039 33.4836C6.17528 33.8553 9.00377 33.9639 11.7733 34.0036C11.1407 34.7432 10.5733 35.538 10.0919 36.3817C10.9385 35.902 11.7361 35.3365 12.4783 34.7061C12.5179 37.4654 12.6271 40.2866 13.0001 42.9999C13.3732 40.2848 13.4821 37.4668 13.5217 34.7076C14.2633 35.3386 15.0606 35.9037 15.9081 36.3817C15.4291 35.5385 14.8629 34.7453 14.2312 34.0072C17.0108 33.9731 19.7842 33.8535 22.5496 33.4836C20.9125 33.2646 19.2728 33.1344 17.6303 33.0567C19.4624 32.0952 20.8825 30.3488 21.8304 28.5314C23.7235 24.6199 23.073 19.6099 23.1864 15.4032C23.1882 13.0747 23.0331 10.8118 23.1688 8.52069C23.2858 7.08693 23.5017 5.61608 24.3367 4.42202C24.7365 3.83255 25.3099 3.35018 26 2.96185C26.0003 2.96185 25.9378 2.75745 25.9378 2.75745Z" fill="#B36414"/>
<path d="M17.9224 22.3843C17.9903 20.2029 17.7596 18.026 17.684 15.853C17.5726 13.3874 17.6616 10.9343 17.6804 8.55095C17.7676 6.17885 17.9674 3.81445 19.541 1.85797L19.4288 1.71973C18.277 2.31513 17.3982 3.4374 16.8659 4.64303C15.2806 8.23946 15.8191 12.2064 16.2594 15.9616C16.5443 19.5702 18.4538 27.6017 14.6581 29.7281C14.6581 29.7281 14.6968 29.902 14.6971 29.902C17.3648 28.9307 17.8346 24.8368 17.9224 22.3843Z" fill="#B36414"/>
<path d="M8.31698 15.853C8.19284 19.582 7.58284 23.4508 8.86059 27.06C9.31608 28.2291 10.0118 29.5027 11.3042 29.902C11.3042 29.902 11.3432 29.7281 11.3429 29.7284C8.98533 28.5035 8.94722 24.7258 9.04517 22.3914C9.16157 20.2403 9.53162 18.1109 9.7418 15.9619C10.019 13.4643 10.383 10.9587 10.1023 8.42606C9.82694 5.94449 8.93949 2.9746 6.57244 1.71973L6.46021 1.85797C8.03387 3.81445 8.23363 6.17885 8.32086 8.55095C8.33931 10.9343 8.42862 13.3874 8.31698 15.853Z" fill="#B36414"/>
<path d="M12.9111 21.1733L13.0898 21.1739C13.2973 18.6268 13.4753 15.7996 13.6277 13.2361C13.7009 11.6802 13.8099 9.47537 13.9403 7.944C14.0924 5.27524 13.8531 2.60053 13.1788 0.000889043L13.0002 0C12.7406 0.881085 12.578 1.76276 12.4503 2.64444C11.9948 5.28087 12.149 7.93392 12.3303 10.584C12.4625 14.0158 12.667 17.7602 12.9111 21.1733Z" fill="#B36414"/>
</g>
<defs>
<clipPath id="clip0_53_8">
<rect width="26" height="43" fill="white"/>
</clipPath>
</defs>
</svg>
