<svg width="278" height="127" viewBox="0 0 278 127" fill="none" xmlns="http://www.w3.org/2000/svg">
<path d="M43.86 75.46C42.8867 75.46 42.32 75.1533 42.16 74.54C42.2533 73.9133 42.6467 73.6 43.34 73.6C43.82 73.6 44.3267 73.8 44.86 74.2L45.38 74.58C46.1667 73.9667 46.56 72.9133 46.56 71.42C46.56 71.1533 46.5533 70.5467 46.54 69.6C46.4867 66.4267 46.44 62.68 46.4 58.36L44.1 58.12V57.42H50.26V58.12L48.18 58.34C48.1533 59.6067 48.14 61.5533 48.14 64.18V67.64C48.14 69.5467 48.0667 70.9467 47.92 71.84C47.7333 72.9867 47.2467 73.8867 46.46 74.54C45.7133 75.1533 44.8467 75.46 43.86 75.46ZM54.9669 72.28C54.1269 72.28 53.4469 72.0533 52.9269 71.6C52.3669 71.12 52.0869 70.4667 52.0869 69.64C52.0869 68.9333 52.3335 68.34 52.8269 67.86C53.3602 67.3133 54.2802 66.8067 55.5869 66.34C56.6269 66.02 57.5135 65.78 58.2469 65.62V64.98C58.2469 63.9133 58.0735 63.18 57.7269 62.78C57.4069 62.42 56.8535 62.24 56.0669 62.24C55.5602 62.24 55.0935 62.3133 54.6669 62.46L54.2269 63.94C54.0669 64.5267 53.7402 64.82 53.2469 64.82C52.7002 64.82 52.4069 64.5667 52.3669 64.06C52.5802 63.2467 53.0469 62.6067 53.7669 62.14C54.5002 61.6733 55.4002 61.44 56.4669 61.44C57.6002 61.44 58.4269 61.7133 58.9469 62.26C59.4935 62.8333 59.7669 63.76 59.7669 65.04V69.78C59.7669 70.7933 60.0535 71.3 60.6269 71.3C60.9335 71.3 61.2335 71.14 61.5269 70.82L61.8669 71.24C61.4269 71.9067 60.8469 72.24 60.1269 72.24C59.6202 72.24 59.2069 72.0867 58.8869 71.78C58.5802 71.46 58.3802 71.02 58.2869 70.46C57.6335 71.1267 57.0935 71.5867 56.6669 71.84C56.1469 72.1333 55.5802 72.28 54.9669 72.28ZM55.5469 71.1C55.9469 71.1 56.3402 71 56.7269 70.8C57.0735 70.6133 57.5802 70.2533 58.2469 69.72V66.26C57.3269 66.5133 56.5802 66.7533 56.0069 66.98C55.1135 67.3133 54.4869 67.7 54.1269 68.14C53.8469 68.4867 53.7069 68.8933 53.7069 69.36C53.7069 69.9333 53.8802 70.3733 54.2269 70.68C54.5469 70.96 54.9869 71.1 55.5469 71.1ZM67.902 72.28C66.4354 72.28 65.262 71.7933 64.382 70.82C63.502 69.8333 63.062 68.5133 63.062 66.86C63.062 65.22 63.5687 63.8933 64.582 62.88C65.5287 61.92 66.682 61.44 68.042 61.44C68.962 61.44 69.7687 61.6867 70.462 62.18C71.1687 62.6733 71.6154 63.3133 71.802 64.1C71.722 64.5933 71.4287 64.84 70.922 64.84C70.402 64.84 70.062 64.5533 69.902 63.98L69.462 62.48C68.982 62.32 68.5287 62.24 68.102 62.24C67.0754 62.24 66.2487 62.6333 65.622 63.42C64.9687 64.2333 64.642 65.3333 64.642 66.72C64.642 68.0933 64.9887 69.18 65.682 69.98C66.3487 70.7667 67.2287 71.16 68.322 71.16C68.962 71.16 69.5487 71.02 70.082 70.74C70.6287 70.4467 71.082 70.04 71.442 69.52L71.862 69.72C71.142 71.4267 69.822 72.28 67.902 72.28ZM75.228 70.94C74.2013 69.9533 73.688 68.6067 73.688 66.9C73.688 65.18 74.2013 63.8133 75.228 62.8C76.148 61.8933 77.2746 61.44 78.608 61.44C79.928 61.44 81.048 61.8933 81.968 62.8C82.9946 63.8133 83.508 65.18 83.508 66.9C83.508 68.6067 83.0013 69.9533 81.988 70.94C81.068 71.8333 79.9346 72.28 78.588 72.28C77.2546 72.28 76.1346 71.8333 75.228 70.94ZM76.248 70.32C76.7946 71.0933 77.5746 71.48 78.588 71.48C79.6146 71.48 80.408 71.0933 80.968 70.32C81.5413 69.52 81.828 68.38 81.828 66.9C81.828 65.42 81.5413 64.2733 80.968 63.46C80.408 62.6467 79.6213 62.24 78.608 62.24C77.5946 62.24 76.8013 62.6467 76.228 63.46C75.668 64.2733 75.388 65.42 75.388 66.9C75.388 68.38 75.6746 69.52 76.248 70.32ZM91.643 72.28C90.4296 72.28 89.3896 71.7533 88.523 70.7L88.363 72.2L85.283 72V71.36L87.003 71.1C87.0296 69.6333 87.043 68.4133 87.043 67.44V57.5L85.223 57.32V56.7L88.283 55.86L88.583 56.04L88.503 59.12V63.1C89.503 61.9933 90.6363 61.44 91.903 61.44C93.1163 61.44 94.1096 61.9133 94.883 62.86C95.6696 63.8333 96.063 65.1267 96.063 66.74C96.063 68.38 95.6496 69.7133 94.823 70.74C94.0096 71.7667 92.9496 72.28 91.643 72.28ZM91.343 71.26C92.2363 71.26 92.963 70.9133 93.523 70.22C94.1363 69.4467 94.443 68.3267 94.443 66.86C94.443 65.4467 94.163 64.3467 93.603 63.56C93.0696 62.8133 92.3496 62.44 91.443 62.44C90.4963 62.44 89.5363 62.8867 88.563 63.78V69.98C89.4296 70.8333 90.3563 71.26 91.343 71.26ZM108.122 72V71.28L110.202 71.06C110.242 69.78 110.262 67.84 110.262 65.24V64.14C110.262 61.5533 110.242 59.62 110.202 58.34L108.122 58.12V57.42H114.142C115.635 57.42 116.802 57.7467 117.642 58.4C118.442 59.0267 118.842 59.8733 118.842 60.94C118.842 61.7667 118.575 62.4733 118.042 63.06C117.455 63.7 116.582 64.1467 115.422 64.4C116.822 64.5867 117.882 65.0133 118.602 65.68C119.255 66.2933 119.582 67.08 119.582 68.04C119.582 69.1467 119.149 70.06 118.282 70.78C117.282 71.5933 115.855 72 114.002 72H108.122ZM111.982 71.18H113.602C114.989 71.18 116.035 70.9133 116.742 70.38C117.449 69.8333 117.802 69.0533 117.802 68.04C117.802 65.9067 116.309 64.84 113.322 64.84H111.922C111.922 67.76 111.942 69.8733 111.982 71.18ZM111.922 64.04H113.182C115.835 64.04 117.162 63.0267 117.162 61C117.162 60.04 116.875 59.34 116.302 58.9C115.729 58.46 114.829 58.24 113.602 58.24H111.982C111.942 59.4933 111.922 61.4267 111.922 64.04ZM126.418 72.28C124.978 72.28 123.825 71.8133 122.958 70.88C122.051 69.92 121.598 68.6 121.598 66.92C121.598 65.2933 122.085 63.96 123.058 62.92C123.991 61.9333 125.138 61.44 126.498 61.44C127.671 61.44 128.631 61.8067 129.378 62.54C130.125 63.2867 130.498 64.28 130.498 65.52C130.498 66.0667 130.451 66.48 130.358 66.76L123.218 66.74C123.231 68.1667 123.585 69.2733 124.278 70.06C124.931 70.7933 125.811 71.16 126.918 71.16C128.145 71.16 129.191 70.64 130.058 69.6L130.478 69.92C129.585 71.4933 128.231 72.28 126.418 72.28ZM123.238 65.98H127.918C128.331 65.98 128.625 65.88 128.798 65.68C128.931 65.52 128.998 65.26 128.998 64.9C128.998 64.18 128.758 63.56 128.278 63.04C127.771 62.5067 127.145 62.24 126.398 62.24C125.611 62.24 124.931 62.5467 124.358 63.16C123.731 63.84 123.358 64.78 123.238 65.98ZM132.495 72V71.36L134.135 71.12C134.175 70 134.195 68.7733 134.195 67.44V66.34C134.195 65.5533 134.168 64.6133 134.115 63.52C134.115 63.4267 134.115 63.3533 134.115 63.3L132.335 63.16V62.52L135.215 61.46L135.495 61.66L135.695 64.28C136.055 63.4 136.528 62.7067 137.115 62.2C137.701 61.6933 138.315 61.44 138.955 61.44C139.288 61.44 139.595 61.5067 139.875 61.64C140.168 61.7733 140.368 61.9467 140.475 62.16C140.475 63.0667 140.101 63.52 139.355 63.52C138.955 63.52 138.528 63.3267 138.075 62.94L137.795 62.7C136.901 63.2867 136.208 64.26 135.715 65.62V67.44C135.715 68.3867 135.728 69.6067 135.755 71.1L137.595 71.36V72H132.495ZM141.537 72V71.36L143.217 71.12C143.257 70 143.277 68.7733 143.277 67.44V66.34C143.277 65.5533 143.25 64.6067 143.197 63.5C143.197 63.4067 143.197 63.34 143.197 63.3L141.417 63.16V62.52L144.297 61.46L144.577 61.66L144.737 63.5C145.323 62.86 145.97 62.36 146.677 62C147.383 61.6267 148.07 61.44 148.737 61.44C149.67 61.44 150.357 61.74 150.797 62.34C151.25 62.9667 151.477 63.9733 151.477 65.36V67.44C151.477 68.7733 151.497 69.9933 151.537 71.1L153.117 71.36V72H148.217V71.36L149.917 71.12C149.943 69.6533 149.957 68.4267 149.957 67.44V65.44C149.957 64.4267 149.803 63.7067 149.497 63.28C149.203 62.88 148.73 62.68 148.077 62.68C147.05 62.68 145.957 63.2133 144.797 64.28V67.44C144.797 68.4133 144.81 69.6333 144.837 71.1L146.417 71.36V72H141.537ZM156.361 70.94C155.334 69.9533 154.821 68.6067 154.821 66.9C154.821 65.18 155.334 63.8133 156.361 62.8C157.281 61.8933 158.407 61.44 159.741 61.44C161.061 61.44 162.181 61.8933 163.101 62.8C164.127 63.8133 164.641 65.18 164.641 66.9C164.641 68.6067 164.134 69.9533 163.121 70.94C162.201 71.8333 161.067 72.28 159.721 72.28C158.387 72.28 157.267 71.8333 156.361 70.94ZM157.381 70.32C157.927 71.0933 158.707 71.48 159.721 71.48C160.747 71.48 161.541 71.0933 162.101 70.32C162.674 69.52 162.961 68.38 162.961 66.9C162.961 65.42 162.674 64.2733 162.101 63.46C161.541 62.6467 160.754 62.24 159.741 62.24C158.727 62.24 157.934 62.6467 157.361 63.46C156.801 64.2733 156.521 65.42 156.521 66.9C156.521 68.38 156.807 69.52 157.381 70.32ZM170.716 72.28C169.769 72.28 169.069 71.9867 168.616 71.4C168.109 70.76 167.862 69.7333 167.876 68.32L167.936 62.76L166.276 62.48V61.84L169.276 61.58L169.476 61.8L169.376 64.84V68.2C169.376 69.2133 169.536 69.94 169.856 70.38C170.162 70.7933 170.649 71 171.316 71C172.462 71 173.549 70.4667 174.576 69.4L174.616 62.76L172.976 62.48V61.84L175.936 61.58L176.156 61.8L176.076 64.84V71.12L177.616 71.36V72L174.776 72.18L174.616 70.18C173.482 71.58 172.182 72.28 170.716 72.28ZM179.049 72V71.36L180.909 71.1C180.936 69.5267 180.949 68.3067 180.949 67.44V57.48L179.129 57.32V56.7L182.229 55.86L182.529 56.04L182.469 59.12V67.44C182.469 68.3067 182.483 69.5267 182.509 71.1L184.309 71.36V72H179.049ZM185.534 72V71.36L187.394 71.1C187.42 69.5267 187.434 68.3067 187.434 67.44V57.48L185.614 57.32V56.7L188.714 55.86L189.014 56.04L188.954 59.12V67.44C188.954 68.3067 188.967 69.5267 188.994 71.1L190.794 71.36V72H185.534ZM192.238 72V71.36L193.958 71.1C193.985 69.6333 193.998 68.4133 193.998 67.44V66.32C193.998 64.96 193.985 63.9467 193.958 63.28L192.118 63.16V62.5L195.258 61.46L195.558 61.66L195.498 64.5V67.44C195.498 68.4133 195.511 69.6333 195.538 71.1L197.118 71.36V72H192.238ZM194.698 56.3C195.071 56.3 195.378 56.4133 195.618 56.64C195.858 56.8667 195.978 57.16 195.978 57.52C195.978 57.88 195.851 58.1733 195.598 58.4C195.358 58.6267 195.058 58.74 194.698 58.74C194.338 58.74 194.038 58.6267 193.798 58.4C193.558 58.1733 193.438 57.88 193.438 57.52C193.438 57.16 193.558 56.8667 193.798 56.64C194.038 56.4133 194.338 56.3 194.698 56.3Z" fill="white"/>
<g clip-path="url(#clip0_86_3)">
<path d="M233.938 44.7574C230.234 45.2125 229.162 49.5711 228.973 52.7026C228.651 57.4302 229.923 62.0973 229.49 66.7908C229.327 70.0309 227.356 73.7285 224.324 75.0054C223.627 74.9834 222.929 74.9683 222.231 74.9597C222.863 74.2216 223.429 73.4286 223.908 72.5852C223.062 73.0625 222.266 73.6268 221.525 74.2566C221.491 71.4867 221.371 68.723 221 65.9673C220.629 68.7235 220.509 71.4878 220.475 74.2581C219.733 73.6288 218.937 73.0643 218.092 72.5855C218.573 73.4292 219.141 74.2239 219.773 74.9635C219.083 74.9733 218.389 74.9887 217.693 75.0101C217.314 74.8549 216.951 74.6666 216.616 74.4423C215.337 73.6288 214.416 72.3719 213.708 71.0586C212.995 69.7506 212.592 68.2857 212.51 66.7908C212.077 62.0976 213.348 57.4296 213.027 52.7026C212.837 49.5705 211.768 45.2155 208.063 44.7574L208 44.9618C208.69 45.3502 209.263 45.8325 209.663 46.422C210.498 47.6158 210.714 49.0866 210.831 50.5207C210.967 52.8115 210.812 55.0747 210.814 57.4032C210.888 61.1789 210.444 65.735 211.675 69.3679C212.492 71.6385 214.211 73.9116 216.394 75.0593C214.732 75.135 213.072 75.2623 211.45 75.4836C214.175 75.8553 217.004 75.9639 219.773 76.0036C219.141 76.7432 218.573 77.538 218.092 78.3817C218.939 77.902 219.736 77.3365 220.478 76.7061C220.518 79.4654 220.627 82.2866 221 84.9999C221.373 82.2848 221.482 79.4668 221.522 76.7076C222.263 77.3386 223.061 77.9037 223.908 78.3817C223.429 77.5385 222.863 76.7453 222.231 76.0072C225.011 75.9731 227.784 75.8535 230.55 75.4836C228.913 75.2646 227.273 75.1344 225.63 75.0567C227.462 74.0952 228.882 72.3488 229.83 70.5314C231.723 66.6199 231.073 61.6099 231.186 57.4032C231.188 55.0747 231.033 52.8118 231.169 50.5207C231.286 49.0869 231.502 47.6161 232.337 46.422C232.737 45.8325 233.31 45.3502 234 44.9618C234 44.9618 233.938 44.7574 233.938 44.7574Z" fill="#B36414"/>
<path d="M225.922 64.3843C225.99 62.2029 225.76 60.026 225.684 57.853C225.573 55.3874 225.662 52.9343 225.68 50.551C225.768 48.1788 225.967 45.8145 227.541 43.858L227.429 43.7197C226.277 44.3151 225.398 45.4374 224.866 46.643C223.281 50.2395 223.819 54.2064 224.259 57.9616C224.544 61.5702 226.454 69.6017 222.658 71.7281C222.658 71.7281 222.697 71.902 222.697 71.902C225.365 70.9307 225.835 66.8368 225.922 64.3843Z" fill="#B36414"/>
<path d="M216.317 57.853C216.193 61.582 215.583 65.4508 216.861 69.06C217.316 70.2291 218.012 71.5027 219.304 71.902C219.304 71.902 219.343 71.7281 219.343 71.7284C216.985 70.5035 216.947 66.7258 217.045 64.3914C217.162 62.2403 217.532 60.1109 217.742 57.9619C218.019 55.4643 218.383 52.9587 218.102 50.4261C217.827 47.9445 216.939 44.9746 214.572 43.7197L214.46 43.858C216.034 45.8145 216.234 48.1788 216.321 50.551C216.339 52.9343 216.429 55.3874 216.317 57.853Z" fill="#B36414"/>
<path d="M220.911 63.1733L221.09 63.1739C221.297 60.6268 221.475 57.7996 221.628 55.2361C221.701 53.6802 221.81 51.4754 221.94 49.944C222.092 47.2752 221.853 44.6005 221.179 42.0009L221 42C220.741 42.8811 220.578 43.7628 220.45 44.6444C219.995 47.2809 220.149 49.9339 220.33 52.584C220.462 56.0158 220.667 59.7602 220.911 63.1733Z" fill="#B36414"/>
</g>
<defs>
<clipPath id="clip0_86_3">
<rect width="26" height="43" fill="white" transform="translate(208 42)"/>
</clipPath>
</defs>
</svg>
